<svg viewBox="0 0 101 100" xmlns="http://www.w3.org/2000/svg">
    <path
        d="M0.5 20C0.5 8.9543 9.45431 0 20.5 0H80.5C91.5457 0 100.5 8.95431 100.5 20V80C100.5 91.0457 91.5457 100 80.5 100H20.5C9.4543 100 0.5 91.0457 0.5 80V20Z"
        fill="rgb(54, 79, 119)" />
    <path
        d="M80.8445 14.9823C79.8827 16.8101 78.5362 20.081 77.7668 22.1013C74.112 31.6253 68.3412 44.1316 60.4545 54.1367C51.2213 65.8734 38.718 78.5722 20.5402 88L14 82.0354C31.8893 73.4734 44.2003 62.0253 54.1067 49.4228C61.9934 39.2253 66.8024 28.5468 70.0725 19.119C70.7457 17.1949 71.6113 14.0203 72.0922 12L80.8445 14.9823ZM30.0619 26.3342C39.5837 32.3949 52.9526 42.0152 60.2622 47.8835C69.8801 55.7722 79.4018 64.1418 87 72.4152L80.9407 79.0532C72.9578 69.8177 64.5902 62.2177 54.9723 54.1367C48.0474 48.3646 35.5441 38.8405 24.9644 32.3949L30.0619 26.3342Z"
        fill="#E6E7E8" />
    <path d="M18.5 41L14.5 46C21.5 50.5 27.5 56 27.5 56L32 51.5C26.5 46.5 22.3333 43.1667 18.5 41Z"
        fill="#E6E7E8" stroke="#E6E7E8" />
</svg>