<svg fill="currentColor" viewBox="0 0 24 24" xmlns="http://www.w3.org/2000/svg">
    <path d="M13.031 1.219H10.97V5.53h2.062V1.22Z"></path>
    <path d="M13.031 18.469H10.97v4.312h2.062V18.47Z"></path>
    <path d="m18.895 3.646-3.05 3.05 1.46 1.458 3.049-3.05-1.459-1.458Z"></path>
    <path d="m6.698 15.841-3.05 3.05 1.459 1.458 3.05-3.05-1.46-1.458Z"></path>
    <path d="M22.781 10.969H18.47v2.062h4.312V10.97Z"></path>
    <path d="M5.531 10.969H1.22v2.062h4.31V10.97Z"></path>
    <path d="m17.304 15.846-1.458 1.459 3.05 3.05 1.457-1.46-3.049-3.049Z"></path>
    <path d="M5.105 3.651 3.646 5.109l3.05 3.05L8.154 6.7l-3.05-3.049Z"></path>
    <path d="M12 16.781A4.782 4.782 0 1 1 16.781 12 4.787 4.787 0 0 1 12 16.781Z"></path>
</svg>